<?xml version="1.0" standalone="no"?>
<!DOCTYPE svg PUBLIC "-//W3C//DTD SVG 20010904//EN"
 "http://www.w3.org/TR/2001/REC-SVG-20010904/DTD/svg10.dtd">
<svg version="1.0" xmlns="http://www.w3.org/2000/svg"
 width="300.000000pt" height="300.000000pt" viewBox="0 0 300.000000 300.000000"
 preserveAspectRatio="xMidYMid meet">

<g transform="translate(0.000000,300.000000) scale(0.100000,-0.100000)"
fill="#000000" stroke="none">
<path d="M1080 2462 c-538 -295 -552 -303 -546 -309 2 -3 220 -121 483 -262
l478 -257 3 -178 c2 -167 1 -178 -15 -172 -10 4 -154 79 -319 167 -166 87
-307 159 -313 159 -17 0 -15 -566 1 -577 7 -4 163 -90 348 -189 l335 -182 3
-176 c2 -115 6 -176 13 -176 15 0 913 491 921 504 5 6 7 85 5 175 l-2 163
-150 80 c-82 44 -221 117 -308 163 l-159 83 134 73 c73 40 212 116 308 168
l175 96 3 164 c2 107 -1 168 -8 176 -6 8 -93 58 -193 113 -348 191 -775 422
-779 422 -2 0 -190 -103 -418 -228z"/>
</g>
</svg>
